<svg width="36" height="36" viewBox="0 0 36 36" fill="none" xmlns="http://www.w3.org/2000/svg">
<path d="M27.1463 20.103C24.8198 19.9647 23.0836 19.3876 21.7555 18.7268C21.2417 20.4182 19.68 21.65 17.8328 21.65C17.3225 21.65 16.8363 21.5517 16.3852 21.3802C16.1113 26.1068 20.3716 29.6525 24.7857 26.8224C27.0051 25.5102 30.2119 20.2827 27.1463 20.103Z" fill="#DADADA"/>
<path d="M11.1433 24.7977C12.2697 22.7574 13.538 21.4388 14.7062 20.5245C13.4007 19.3326 12.9613 17.3928 13.7565 15.7255C13.9762 15.2649 14.2743 14.8684 14.6233 14.5351C10.475 12.253 5.44063 14.5719 6.09468 19.7743C6.3236 22.3424 9.66126 27.4874 11.1433 24.7977Z" fill="#DADADA"/>
<path d="M13.6975 8.63652C15.1194 10.4831 15.823 12.172 16.1955 13.6079C17.8092 12.8859 19.7633 13.2564 20.9752 14.6505C21.31 15.0357 21.5548 15.4672 21.7213 15.9201C25.4682 13.0258 25.3491 7.48438 20.3174 6.00972C17.871 5.19561 11.8219 6.20491 13.6975 8.63652Z" fill="#DADADA"/>
<path d="M20.7032 17.559C20.7032 19.2327 19.3464 20.5928 17.6677 20.5928C15.992 20.5928 14.6327 19.2327 14.6327 17.559C14.6327 15.879 15.992 14.5222 17.6677 14.5222C19.3464 14.522 20.7032 15.879 20.7032 17.559Z" fill="#DADADA"/>
</svg>
